<?xml version="1.0" encoding="utf-8"?>
<!-- Generator: Adobe Illustrator 16.0.4, SVG Export Plug-In . SVG Version: 6.00 Build 0)  -->
<!DOCTYPE svg PUBLIC "-//W3C//DTD SVG 1.1//EN" "http://www.w3.org/Graphics/SVG/1.1/DTD/svg11.dtd">
<svg version="1.1" id="Layer_1" xmlns="http://www.w3.org/2000/svg" xmlns:xlink="http://www.w3.org/1999/xlink" x="0px" y="0px"
	 width="387.792px" height="480px" viewBox="0 0 387.792 480" enable-background="new 0 0 387.792 480" xml:space="preserve">
<g>
	<path fill="#CDF645" d="M0.192,84.273c1.037,0,1.903,0,2.769,0c8.975,0,17.951,0.056,26.926-0.048
		c1.832-0.02,2.599,0.543,3.224,2.266c10.458,28.796,20.993,57.563,31.517,86.334c2.994,8.189,5.997,16.373,9.003,24.56
		c0.268,0.734,0.571,1.458,1.306,2.129c0-38.294,0-76.591,0-115.062c10.598,0,20.889,0,31.343,0c0,67.167,0,134.36,0,201.959
		c-0.773,0-1.608,0-2.444,0c-8.415,0-16.829-0.083-25.242,0.062c-2.022,0.033-2.728-0.723-3.338-2.47
		C61.155,243.6,47.003,203.214,32.859,162.824c-0.276-0.786-0.582-1.562-1.383-2.229c0,41.832,0,83.661,0,125.653
		c-10.542,0-20.829,0-31.284,0C0.192,219.015,0.192,151.825,0.192,84.273z"/>
	<path fill="#CDF645" d="M178.669,286.314c-11.75,0-23.104,0-34.627,0c0-67.285,0-134.479,0-201.854
		c0.571-0.061,1.182-0.179,1.791-0.179c16.589-0.002,33.181-0.052,49.77,0.042c9.111,0.053,18.012,1.453,26.564,4.775
		c12.949,5.031,21.688,14.091,25.541,27.427c4.858,16.807,5.143,33.855,0.895,50.812c-3.047,12.159-9.531,21.982-21.559,27.539
		c9.776,30.457,19.521,60.815,29.334,91.383c-11.844,0-23.422,0-35.31,0c-8.159-27.714-16.351-55.531-24.526-83.282
		c-6,0.258-11.816,0.505-17.873,0.763C178.669,231.168,178.669,258.611,178.669,286.314z M178.681,174.698
		c6.175,0,12.124,0.352,18.014-0.075c11.141-0.81,16.946-6.293,18.855-17.318c1.525-8.829,1.521-17.699,0.02-26.534
		c-1.789-10.497-6.68-15.431-17.072-17.366c-1.256-0.233-2.543-0.426-3.813-0.439c-5.327-0.048-10.651-0.02-15.999-0.02
		C178.681,133.631,178.681,154.113,178.681,174.698z"/>
	<path fill="#CDF645" d="M387.623,151.585c-11.658,0-23.08,0-34.818,0c0-3.01,0.125-5.958-0.023-8.891
		c-0.293-5.823-0.209-11.732-1.246-17.433c-1.213-6.665-5.369-11.483-12.217-13.11c-4.789-1.136-9.627-0.553-14.016,1.777
		c-5.188,2.755-6.479,7.884-7.213,13.134c-0.395,2.843-0.492,5.749-0.494,8.626c-0.035,33.098-0.049,66.194,0.02,99.293
		c0.006,3.663,0.273,7.38,0.93,10.979c1.547,8.522,6.195,12.422,14.822,12.919c0.561,0.033,1.125,0.025,1.686,0.041
		c11.545,0.346,16.719-4.453,17.518-16.479c0.559-8.38,0.191-16.821,0.234-25.233c0.006-0.941,0-1.877,0-2.92
		c11.721,0,23.141,0,34.57,0c0.111,0.319,0.25,0.542,0.248,0.759c-0.107,9.692,0.414,19.444-0.486,29.064
		c-1.754,18.738-10.133,33.395-28.283,41.004c-9.455,3.967-19.396,4.628-29.492,3.849c-6.67-0.515-13.137-1.927-19.234-4.771
		c-16.229-7.568-24.367-20.832-26.684-38.113c-0.41-3.084-0.54-6.227-0.542-9.342c-0.037-34.3-0.002-68.6-0.043-102.9
		c-0.008-7.031,0.89-13.902,3.138-20.562c4.5-13.333,13.358-22.712,26.43-27.746c13.572-5.228,27.607-5.843,41.463-1.426
		c17.834,5.682,27.617,18.844,31.898,36.56C388.244,130.82,387.623,141.153,387.623,151.585z"/>
	<path fill="#CDF645" d="M387.792,460.064c0,6.664,0,13.21,0,19.936c-129.158,0-258.292,0-387.599,0c0-6.608,0-13.204,0-19.936
		C129.394,460.064,258.53,460.064,387.792,460.064z"/>
	<path fill="#CDF645" d="M0.164,352.239c0-6.665,0-13.204,0-19.943c129.151,0,258.263,0,387.562,0c0,6.603,0,13.192,0,19.943
		C258.541,352.239,129.421,352.239,0.164,352.239z"/>
	<path fill="#CDF645" d="M143.972,39.007c0-6.657,0-13.194,0-19.888c81.275,0,162.461,0,243.795,0c0,6.615,0,13.15,0,19.888
		C306.609,39.007,225.423,39.007,143.972,39.007z"/>
	<path fill="#CDF645" d="M16.05,0.891c-1.165,3.464-2.329,6.184-2.984,9.021c-2.124,9.181,3.262,15.543,12.686,14.466
		c5.843-0.667,11.615-2.216,17.33-3.708c24.381-6.366,48.728-12.859,73.092-19.3c0.375-0.1,0.763-0.157,1.264,0.052
		c-0.466,0.249-0.916,0.535-1.397,0.74C87.812,14.075,59.584,25.997,31.342,37.875c-5.705,2.4-11.554,4.287-17.861,4.224
		C3.769,42-1.669,35.102,0.458,25.578C1.875,19.232,5.253,13.929,9.24,8.957C11.293,6.399,13.469,3.94,16.05,0.891z"/>
	<path fill="#CDF645" d="M243.843,423.254c-4.805,0.608-4.807,0.61-6.326-3.694c-1.878-5.334-3.751-10.666-6.139-15.963
		c0,6.523,0,13.047,0,19.716c-2,0-3.633,0-5.414,0c0-11.424,0-22.753,0-34.481c1.562,0,3.139-0.146,4.664,0.079
		c0.526,0.074,1.105,0.986,1.351,1.636c1.925,5.079,3.774,10.188,5.653,15.284c0.207,0.562,0.445,1.113,1.076,1.571
		c0-6.109,0-12.214,0-18.452c1.775,0,3.349,0,5.135,0C243.843,400.312,243.843,411.701,243.843,423.254z"/>
	<path fill="#CDF645" d="M12.775,388.95c1.885,0,3.457,0,5.256,0c0,11.38,0,22.767,0,34.515c-0.99,0-2.005-0.098-2.996,0.023
		c-1.549,0.188-2.252-0.459-2.739-1.917c-1.875-5.608-3.877-11.175-5.835-16.758c-0.183-0.521-0.391-1.029-0.936-1.53
		c0,6.616,0,13.23,0,20.01c-1.915,0-3.545,0-5.339,0c0-11.432,0-22.825,0-34.48c1.224,0,2.332,0.094,3.419-0.021
		c1.439-0.147,2.12,0.407,2.598,1.785c1.731,4.983,3.599,9.919,5.42,14.871c0.208,0.566,0.452,1.125,1.151,1.632
		C12.775,401.078,12.775,395.08,12.775,388.95z"/>
	<path fill="#CDF645" d="M366.644,423.35c0-11.604,0-22.94,0-34.361c3.719,0,7.309-0.188,10.869,0.055
		c3.326,0.223,5.727,2.043,6.523,5.426c0.863,3.646,0.854,7.176-2.215,9.981c-0.289,0.263-0.623,0.484-1.074,0.834
		c4.92,2.876,5.004,7.33,3.969,11.991c-0.771,3.467-3.145,5.705-6.672,6.003C374.324,423.593,370.558,423.35,366.644,423.35z
		 M372.542,418.483c2.244,0.059,4.494,0.646,5.926-1.647c1.107-1.777,0.973-5.922-0.271-7.365c-1.559-1.811-3.588-1.648-5.652-1.279
		C372.542,411.697,372.542,415.029,372.542,418.483z M372.535,402.95c2.154,0.259,4.166,0.259,5.348-1.757
		c1.123-1.918,1-4.054-0.188-5.903c-1.223-1.91-3.182-1.681-5.158-1.36C372.535,396.977,372.535,399.887,372.535,402.95z"/>
	<path fill="#CDF645" d="M178.638,423.254c-0.282,0.09-0.431,0.172-0.582,0.18c-5.14,0.26-5.144,0.26-6.581-4.629
		c-0.698-2.378-1.514-4.729-2.025-7.147c-0.448-2.123-1.478-2.842-3.806-2.062c0,4.461,0,9.057,0,13.74c-2.094,0-3.888,0-5.823,0
		c0-11.467,0-22.804,0-34.803c4.309,0.334,8.596,0.425,12.782,1.123c1.493,0.25,3.131,1.722,4.027,3.08
		c2.745,4.166,1.71,10.966-1.763,14.604c-0.434,0.458-0.513,1.581-0.311,2.267c1.295,4.362,2.712,8.695,4.08,13.039
		C178.677,422.79,178.638,422.96,178.638,423.254z M165.739,404.109c3.268,0.538,4.817,0.139,5.706-1.409
		c0.959-1.679,0.889-6.379-0.264-7.62c-1.536-1.655-3.5-1.447-5.441-1.186C165.739,397.474,165.739,400.802,165.739,404.109z"/>
	<path fill="#CDF645" d="M345.111,388.948c2.092,0,3.895,0,5.797,0c0.086,0.312,0.23,0.608,0.232,0.899
		c0.016,8.482,0.115,16.97-0.023,25.449c-0.094,5.757-3.566,8.755-9.516,8.633c-5.541-0.112-8.639-3.258-8.676-8.962
		c-0.045-8.081-0.016-16.165-0.01-24.25c0.002-0.542,0.07-1.09,0.119-1.765c1.895,0,3.688,0,5.795,0c0,0.941,0,1.794,0,2.646
		c0,7.601-0.016,15.204,0.012,22.809c0.006,1.687,0.02,3.482,2.066,4.147c2.479,0.808,4.158-0.591,4.18-3.62
		c0.055-7.763,0.023-15.523,0.025-23.287C345.111,390.797,345.111,389.938,345.111,388.948z"/>
	<path fill="#CDF645" d="M192.544,388.909c1.892,0,3.637,0,5.717,0c0,0.935,0,1.784,0,2.63c0,7.762-0.004,15.523,0.01,23.287
		c0,1.771,0.273,3.426,2.436,3.816c2.455,0.446,3.808-0.878,3.826-3.878c0.039-6.72,0.012-13.444,0.012-20.167
		c0-1.826,0-3.65,0-5.633c1.982,0,3.777,0,5.742,0c0.073,0.633,0.209,1.24,0.209,1.848c0.014,7.843,0.061,15.688-0.011,23.527
		c-0.062,7.038-3.948,10.359-10.95,9.514c-3.617-0.437-6.796-2.826-6.896-6.286C192.362,408.081,192.544,398.579,192.544,388.909z"
		/>
	<path fill="#CDF645" d="M73.292,423.283c-5.9,0.554-5.897,0.554-7.476-4.675c-1.082-3.585-2.164-7.165-3.272-10.848
		c-2.376,2.151-2.362,4.832-2.28,7.575c0.078,2.622,0.016,5.244,0.016,7.995c-2.021,0-3.817,0-5.787,0c0-11.467,0-22.854,0-34.38
		c1.912,0,3.709,0,5.726,0c0,3.956,0,7.827,0,11.705c0.161,0.043,0.324,0.092,0.486,0.137c1.422-2.884,3.059-5.688,4.202-8.676
		c1.011-2.647,2.516-3.832,5.325-3.321c0.602,0.112,1.239,0.017,2.317,0.017c-1.92,3.869-3.631,7.438-5.46,10.947
		c-0.713,1.366-0.822,2.562-0.302,4.058C69.01,410.222,71.098,416.673,73.292,423.283z"/>
	<path fill="#CDF645" d="M289.488,400.242c-2.045,0-3.852,0-6.051,0c0-1.104,0.053-2.191-0.012-3.275
		c-0.111-1.871-0.85-3.32-2.971-3.357c-2.185-0.036-2.887,1.396-2.889,3.318c-0.012,6.164-0.047,12.329,0.02,18.495
		c0.029,2.485,0.963,3.32,3.125,3.291c2.299-0.035,2.744-1.532,2.754-3.396c0.008-1.276,0.002-2.551,0.002-4.039
		c1.992,0,3.85,0,5.699,0c1.369,5.865-0.691,10.671-5.194,12.187c-6.767,2.274-12.399-1.675-12.483-8.828
		c-0.064-5.604-0.05-11.209-0.004-16.813c0.051-5.967,3.232-9.346,8.816-9.484c5.334-0.134,8.728,3.166,9.178,8.958
		C289.548,398.227,289.488,399.17,289.488,400.242z"/>
	<path fill="#CDF645" d="M86.087,388.943c5.222,0,10.324,0,15.634,0c0,1.621,0,3.24,0,5.035c-3.158,0-6.258,0-9.558,0
		c0,2.983,0,5.806,0,8.968c2.442,0,4.874,0,7.358,0c0,1.836,0,3.331,0,5.088c-2.463,0-4.83,0-7.373,0c0,3.482,0,6.71,0,10.241
		c3.437,0,6.839,0,10.33,0c0,1.801,0,3.3,0,4.996c-5.417,0-10.814,0-16.393,0C86.087,411.881,86.087,400.478,86.087,388.943z"/>
	<path fill="#CDF645" d="M320,418.205c0,1.934,0,3.429,0,5.092c-4.996,0-9.916,0-15.015,0c0-11.416,0-22.812,0-34.349
		c1.896,0,3.696,0,5.751,0c0,9.688,0,19.328,0,29.257C313.892,418.205,316.808,418.205,320,418.205z"/>
	<path fill="#CDF645" d="M119.275,26.937c0.146,3.947-0.26,4.398-3.614,4.408c-1.843,0.006-3.687,0.038-5.53-0.004
		c-1.37-0.032-2.051,0.573-2.25,1.923c-0.329,2.216-0.794,4.415-1.115,6.63c-0.301,2.11-1.759,2.283-3.372,2.044
		c-1.962-0.289-1.17-1.707-0.99-2.809c0.292-1.818,0.53-3.653,0.979-5.434c0.483-1.928-0.295-2.445-2.068-2.367
		c-1.919,0.084-3.845,0.036-5.769,0.01c-1.014-0.014-2.256,0.199-2.104-1.484c0.126-1.385,0.215-2.85,2.135-2.886
		c2.164-0.042,4.332-0.102,6.49-0.006c1.914,0.084,2.761-0.719,2.962-2.599c0.215-1.986,0.716-3.937,0.982-5.919
		c0.297-2.212,1.876-2.104,3.417-1.945c1.875,0.192,1.159,1.511,0.979,2.553c-0.315,1.813-0.599,3.635-0.99,5.432
		c-0.379,1.755,0.141,2.545,2.035,2.476C114.068,26.869,116.687,26.937,119.275,26.937z"/>
	<path fill="#CDF645" d="M38.942,423.369c-1.839,0-3.577,0-5.526,0c0-11.41,0-22.792,0-34.366c1.744,0,3.538,0,5.526,0
		C38.942,400.324,38.942,411.709,38.942,423.369z"/>
	<path fill="#CDF645" d="M120.162,415.159c0-2.597,0-4.979,0-7.649c-2.685,0-5.197,0-7.821,0c0-1.378,0-2.462,0-3.847
		c2.503,0,5.011,0,7.759,0c0-2.731,0-5.176,0-7.819c1.299,0,2.36,0,3.757,0c0,2.465,0,4.969,0,7.747c2.826,0,5.33,0,7.944,0
		c0,1.367,0,2.451,0,3.819c-2.547,0-5.056,0-7.827,0c0,2.714,0,5.158,0,7.749C122.643,415.159,121.566,415.159,120.162,415.159z"/>
</g>
</svg>
