<?xml version="1.0" encoding="utf-8"?>
<!-- Generator: Adobe Illustrator 16.0.4, SVG Export Plug-In . SVG Version: 6.00 Build 0)  -->
<!DOCTYPE svg PUBLIC "-//W3C//DTD SVG 1.1//EN" "http://www.w3.org/Graphics/SVG/1.1/DTD/svg11.dtd">
<svg version="1.1" id="Layer_1" xmlns="http://www.w3.org/2000/svg" xmlns:xlink="http://www.w3.org/1999/xlink" x="0px" y="0px"
	 width="576px" height="576px" viewBox="0 0 576 576" enable-background="new 0 0 576 576" xml:space="preserve">
<g id="gridlines">
	<line fill="none" stroke="#000000" stroke-width="0.75" stroke-miterlimit="10" x1="0" y1="576" x2="576" y2="0"/>
	<line fill="none" stroke="#000000" stroke-width="0.75" stroke-miterlimit="10" x1="576" y1="576" x2="0" y2="0"/>
	<line fill="none" stroke="#000000" stroke-width="0.25" stroke-miterlimit="10" x1="0" y1="0" x2="576" y2="0"/>
	<line fill="none" stroke="#000000" stroke-width="0.25" stroke-miterlimit="10" x1="0" y1="24" x2="576" y2="24"/>
	<line fill="none" stroke="#000000" stroke-width="0.25" stroke-miterlimit="10" x1="0" y1="48" x2="576" y2="48"/>
	<line fill="none" stroke="#000000" stroke-width="0.25" stroke-miterlimit="10" x1="0" y1="72" x2="576" y2="72"/>
	<line fill="none" stroke="#000000" stroke-width="0.25" stroke-miterlimit="10" x1="0" y1="96" x2="576" y2="96"/>
	<line fill="none" stroke="#000000" stroke-width="0.25" stroke-miterlimit="10" x1="0" y1="120" x2="576" y2="120"/>
	<line fill="none" stroke="#000000" stroke-width="0.25" stroke-miterlimit="10" x1="0" y1="144" x2="576" y2="144"/>
	<line fill="none" stroke="#000000" stroke-width="0.25" stroke-miterlimit="10" x1="0" y1="168" x2="576" y2="168"/>
	<line fill="none" stroke="#000000" stroke-width="0.75" stroke-miterlimit="10" x1="0" y1="192" x2="576" y2="192"/>
	<line fill="none" stroke="#000000" stroke-width="0.25" stroke-miterlimit="10" x1="0" y1="216" x2="576" y2="216"/>
	<line fill="none" stroke="#000000" stroke-width="0.25" stroke-miterlimit="10" x1="0" y1="240" x2="576" y2="240"/>
	<line fill="none" stroke="#000000" stroke-width="0.25" stroke-miterlimit="10" x1="0" y1="264" x2="576" y2="264"/>
	<line fill="none" stroke="#000000" stroke-width="0.75" stroke-miterlimit="10" x1="0" y1="288" x2="576" y2="288"/>
	<line fill="none" stroke="#000000" stroke-width="0.25" stroke-miterlimit="10" x1="0" y1="312" x2="576" y2="312"/>
	<line fill="none" stroke="#000000" stroke-width="0.25" stroke-miterlimit="10" x1="0" y1="312" x2="576" y2="312"/>
	<line fill="none" stroke="#000000" stroke-width="0.25" stroke-miterlimit="10" x1="0" y1="336" x2="576" y2="336"/>
	<line fill="none" stroke="#000000" stroke-width="0.25" stroke-miterlimit="10" x1="0" y1="360" x2="576" y2="360"/>
	<line fill="none" stroke="#000000" stroke-width="0.75" stroke-miterlimit="10" x1="0" y1="384" x2="576" y2="384"/>
	<line fill="none" stroke="#000000" stroke-width="0.25" stroke-miterlimit="10" x1="0" y1="408" x2="576" y2="408"/>
	<line fill="none" stroke="#000000" stroke-width="0.25" stroke-miterlimit="10" x1="0" y1="432" x2="576" y2="432"/>
	<line fill="none" stroke="#000000" stroke-width="0.25" stroke-miterlimit="10" x1="0" y1="456" x2="576" y2="456"/>
	<line fill="none" stroke="#000000" stroke-width="0.25" stroke-miterlimit="10" x1="0" y1="480" x2="576" y2="480"/>
	<line fill="none" stroke="#000000" stroke-width="0.25" stroke-miterlimit="10" x1="0" y1="504" x2="576" y2="504"/>
	<line fill="none" stroke="#000000" stroke-width="0.25" stroke-miterlimit="10" x1="0" y1="528" x2="576" y2="528"/>
	<line fill="none" stroke="#000000" stroke-width="0.25" stroke-miterlimit="10" x1="0" y1="552" x2="576" y2="552"/>
	<line fill="none" stroke="#000000" stroke-width="0.25" stroke-miterlimit="10" x1="0" y1="576" x2="576" y2="576"/>
	<line fill="none" stroke="#000000" stroke-width="0.25" stroke-miterlimit="10" x1="0" y1="576" x2="0" y2="0"/>
	<line fill="none" stroke="#000000" stroke-width="0.25" stroke-miterlimit="10" x1="24" y1="576" x2="24" y2="0"/>
	<line fill="none" stroke="#000000" stroke-width="0.25" stroke-miterlimit="10" x1="48" y1="576" x2="48" y2="0"/>
	<line fill="none" stroke="#000000" stroke-width="0.25" stroke-miterlimit="10" x1="72" y1="576" x2="72" y2="0"/>
	<line fill="none" stroke="#000000" stroke-width="0.25" stroke-miterlimit="10" x1="96" y1="576" x2="96" y2="0"/>
	<line fill="none" stroke="#000000" stroke-width="0.25" stroke-miterlimit="10" x1="120" y1="576" x2="120" y2="0"/>
	<line fill="none" stroke="#000000" stroke-width="0.25" stroke-miterlimit="10" x1="144" y1="576" x2="144" y2="0"/>
	<line fill="none" stroke="#000000" stroke-width="0.25" stroke-miterlimit="10" x1="168" y1="576" x2="168" y2="0"/>
	<line fill="none" stroke="#000000" stroke-width="0.75" stroke-miterlimit="10" x1="192" y1="576" x2="192" y2="0"/>
	<line fill="none" stroke="#000000" stroke-width="0.25" stroke-miterlimit="10" x1="216" y1="576" x2="216" y2="0"/>
	<line fill="none" stroke="#000000" stroke-width="0.25" stroke-miterlimit="10" x1="240" y1="576" x2="240" y2="0"/>
	<line fill="none" stroke="#000000" stroke-width="0.25" stroke-miterlimit="10" x1="264" y1="576" x2="264" y2="0"/>
	<line fill="none" stroke="#000000" stroke-width="0.75" stroke-miterlimit="10" x1="288" y1="576" x2="288" y2="0"/>
	<line fill="none" stroke="#000000" stroke-width="0.25" stroke-miterlimit="10" x1="312" y1="576" x2="312" y2="0"/>
	<line fill="none" stroke="#000000" stroke-width="0.25" stroke-miterlimit="10" x1="312" y1="576" x2="312" y2="0"/>
	<line fill="none" stroke="#000000" stroke-width="0.25" stroke-miterlimit="10" x1="336" y1="576" x2="336" y2="0"/>
	<line fill="none" stroke="#000000" stroke-width="0.25" stroke-miterlimit="10" x1="360" y1="576" x2="360" y2="0"/>
	<line fill="none" stroke="#000000" stroke-width="0.75" stroke-miterlimit="10" x1="384" y1="576" x2="384" y2="0"/>
	<line fill="none" stroke="#000000" stroke-width="0.25" stroke-miterlimit="10" x1="408" y1="576" x2="408" y2="0"/>
	<line fill="none" stroke="#000000" stroke-width="0.25" stroke-miterlimit="10" x1="432" y1="576" x2="432" y2="0"/>
	<line fill="none" stroke="#000000" stroke-width="0.25" stroke-miterlimit="10" x1="456" y1="576" x2="456" y2="0"/>
	<line fill="none" stroke="#000000" stroke-width="0.25" stroke-miterlimit="10" x1="480" y1="576" x2="480" y2="0"/>
	<line fill="none" stroke="#000000" stroke-width="0.25" stroke-miterlimit="10" x1="504" y1="576" x2="504" y2="0"/>
	<line fill="none" stroke="#000000" stroke-width="0.25" stroke-miterlimit="10" x1="528" y1="576" x2="528" y2="0"/>
	<line fill="none" stroke="#000000" stroke-width="0.25" stroke-miterlimit="10" x1="552" y1="576" x2="552" y2="0"/>
	<line fill="none" stroke="#000000" stroke-width="0.25" stroke-miterlimit="10" x1="576" y1="576" x2="576" y2="0"/>
	<circle fill="none" stroke="#000000" stroke-width="0.75" stroke-miterlimit="10" cx="288" cy="288" r="240"/>
	<circle fill="none" stroke="#000000" stroke-width="0.75" stroke-miterlimit="10" cx="288" cy="288" r="120"/>
	<path fill="none" stroke="#000000" stroke-width="0.75" stroke-miterlimit="10" d="M72,120c0-24,24-48,48-48h336c24,0,48,24,48,48
		v336c0,24-24,48-48,48H120c-24,0-48-24-48-48V120z"/>
	<path fill="none" stroke="#000000" stroke-width="0.75" stroke-miterlimit="10" d="M120,96c0-24,24-48,48-48h240c24,0,48,24,48,48
		v384c0,24-24,48-48,48H168c-24,0-48-24-48-48V96z"/>
	<path fill="none" stroke="#000000" stroke-width="0.75" stroke-miterlimit="10" d="M96,456c-24,0-48-24-48-48V168c0-24,24-48,48-48
		h384c24,0,48,24,48,48v240c0,24-24,48-48,48H96z"/>
</g>
<path fill="#444444" d="M286.983,48.667c6.608,0,12.235,2.34,16.934,7.021c4.663,4.681,7.013,10.316,7.013,16.925v373.032
	l126.599-126.793c4.593-4.592,10.272-6.906,17.004-6.906c6.854,0,12.552,2.279,17.108,6.819c4.559,4.54,6.82,10.255,6.82,17.108
	c0,6.75-2.297,12.412-6.907,17.021L304.022,520.426c-4.61,4.611-10.281,6.907-17.021,6.907s-12.411-2.296-17.013-6.907
	L102.457,352.895c-4.61-4.609-6.916-10.271-6.916-17.021c0-6.854,2.27-12.568,6.819-17.108c4.549-4.54,10.255-6.819,17.109-6.819
	c6.74,0,12.411,2.314,17.021,6.906l126.582,126.793V72.612c0-6.608,2.34-12.244,7.021-16.925c4.68-4.68,10.316-7.021,16.925-7.021
	H286.983z"/>
</svg>
