<?xml version="1.0" encoding="utf-8"?>
<!-- Generator: Adobe Illustrator 16.0.4, SVG Export Plug-In . SVG Version: 6.00 Build 0)  -->
<!DOCTYPE svg PUBLIC "-//W3C//DTD SVG 1.1//EN" "http://www.w3.org/Graphics/SVG/1.1/DTD/svg11.dtd">
<svg version="1.1" id="Layer_1" xmlns="http://www.w3.org/2000/svg" xmlns:xlink="http://www.w3.org/1999/xlink" x="0px" y="0px"
	 width="480px" height="480px" viewBox="0 0 480 480" enable-background="new 0 0 480 480" xml:space="preserve">
<g id="gridlines">
	<line fill="none" stroke="#000000" stroke-width="0.75" stroke-miterlimit="10" x1="0" y1="480" x2="480" y2="0"/>
	<line fill="none" stroke="#000000" stroke-width="0.75" stroke-miterlimit="10" x1="480" y1="480" x2="0" y2="0"/>
	<line fill="none" stroke="#000000" stroke-width="0.25" stroke-miterlimit="10" x1="0" y1="0" x2="480" y2="0"/>
	<line fill="none" stroke="#000000" stroke-width="0.25" stroke-miterlimit="10" x1="0" y1="20" x2="480" y2="20"/>
	<line fill="none" stroke="#000000" stroke-width="0.25" stroke-miterlimit="10" x1="0" y1="40" x2="480" y2="40"/>
	<line fill="none" stroke="#000000" stroke-width="0.25" stroke-miterlimit="10" x1="0" y1="60" x2="480" y2="60"/>
	<line fill="none" stroke="#000000" stroke-width="0.25" stroke-miterlimit="10" x1="0" y1="80" x2="480" y2="80"/>
	<line fill="none" stroke="#000000" stroke-width="0.25" stroke-miterlimit="10" x1="0" y1="100" x2="480" y2="100"/>
	<line fill="none" stroke="#000000" stroke-width="0.25" stroke-miterlimit="10" x1="0" y1="120" x2="480" y2="120"/>
	<line fill="none" stroke="#000000" stroke-width="0.25" stroke-miterlimit="10" x1="0" y1="140" x2="480" y2="140"/>
	<line fill="none" stroke="#000000" stroke-width="0.75" stroke-miterlimit="10" x1="0" y1="160" x2="480" y2="160"/>
	<line fill="none" stroke="#000000" stroke-width="0.25" stroke-miterlimit="10" x1="0" y1="180" x2="480" y2="180"/>
	<line fill="none" stroke="#000000" stroke-width="0.25" stroke-miterlimit="10" x1="0" y1="200" x2="480" y2="200"/>
	<line fill="none" stroke="#000000" stroke-width="0.25" stroke-miterlimit="10" x1="0" y1="220" x2="480" y2="220"/>
	<line fill="none" stroke="#000000" stroke-width="0.75" stroke-miterlimit="10" x1="0" y1="240" x2="480" y2="240"/>
	<line fill="none" stroke="#000000" stroke-width="0.25" stroke-miterlimit="10" x1="0" y1="260" x2="480" y2="260"/>
	<line fill="none" stroke="#000000" stroke-width="0.25" stroke-miterlimit="10" x1="0" y1="260" x2="480" y2="260"/>
	<line fill="none" stroke="#000000" stroke-width="0.25" stroke-miterlimit="10" x1="0" y1="280" x2="480" y2="280"/>
	<line fill="none" stroke="#000000" stroke-width="0.25" stroke-miterlimit="10" x1="0" y1="300" x2="480" y2="300"/>
	<line fill="none" stroke="#000000" stroke-width="0.75" stroke-miterlimit="10" x1="0" y1="320" x2="480" y2="320"/>
	<line fill="none" stroke="#000000" stroke-width="0.25" stroke-miterlimit="10" x1="0" y1="340" x2="480" y2="340"/>
	<line fill="none" stroke="#000000" stroke-width="0.25" stroke-miterlimit="10" x1="0" y1="360" x2="480" y2="360"/>
	<line fill="none" stroke="#000000" stroke-width="0.25" stroke-miterlimit="10" x1="0" y1="380" x2="480" y2="380"/>
	<line fill="none" stroke="#000000" stroke-width="0.25" stroke-miterlimit="10" x1="0" y1="400" x2="480" y2="400"/>
	<line fill="none" stroke="#000000" stroke-width="0.25" stroke-miterlimit="10" x1="0" y1="420" x2="480" y2="420"/>
	<line fill="none" stroke="#000000" stroke-width="0.25" stroke-miterlimit="10" x1="0" y1="440" x2="480" y2="440"/>
	<line fill="none" stroke="#000000" stroke-width="0.25" stroke-miterlimit="10" x1="0" y1="460" x2="480" y2="460"/>
	<line fill="none" stroke="#000000" stroke-width="0.25" stroke-miterlimit="10" x1="0" y1="480" x2="480" y2="480"/>
	<line fill="none" stroke="#000000" stroke-width="0.25" stroke-miterlimit="10" x1="0" y1="480" x2="0" y2="0"/>
	<line fill="none" stroke="#000000" stroke-width="0.25" stroke-miterlimit="10" x1="20" y1="480" x2="20" y2="0"/>
	<line fill="none" stroke="#000000" stroke-width="0.25" stroke-miterlimit="10" x1="40" y1="480" x2="40" y2="0"/>
	<line fill="none" stroke="#000000" stroke-width="0.25" stroke-miterlimit="10" x1="60" y1="480" x2="60" y2="0"/>
	<line fill="none" stroke="#000000" stroke-width="0.25" stroke-miterlimit="10" x1="80" y1="480" x2="80" y2="0"/>
	<line fill="none" stroke="#000000" stroke-width="0.25" stroke-miterlimit="10" x1="100" y1="480" x2="100" y2="0"/>
	<line fill="none" stroke="#000000" stroke-width="0.25" stroke-miterlimit="10" x1="120" y1="480" x2="120" y2="0"/>
	<line fill="none" stroke="#000000" stroke-width="0.25" stroke-miterlimit="10" x1="140" y1="480" x2="140" y2="0"/>
	<line fill="none" stroke="#000000" stroke-width="0.75" stroke-miterlimit="10" x1="160" y1="480" x2="160" y2="0"/>
	<line fill="none" stroke="#000000" stroke-width="0.25" stroke-miterlimit="10" x1="180" y1="480" x2="180" y2="0"/>
	<line fill="none" stroke="#000000" stroke-width="0.25" stroke-miterlimit="10" x1="200" y1="480" x2="200" y2="0"/>
	<line fill="none" stroke="#000000" stroke-width="0.25" stroke-miterlimit="10" x1="220" y1="480" x2="220" y2="0"/>
	<line fill="none" stroke="#000000" stroke-width="0.75" stroke-miterlimit="10" x1="240" y1="480" x2="240" y2="0"/>
	<line fill="none" stroke="#000000" stroke-width="0.25" stroke-miterlimit="10" x1="260" y1="480" x2="260" y2="0"/>
	<line fill="none" stroke="#000000" stroke-width="0.25" stroke-miterlimit="10" x1="260" y1="480" x2="260" y2="0"/>
	<line fill="none" stroke="#000000" stroke-width="0.25" stroke-miterlimit="10" x1="280" y1="480" x2="280" y2="0"/>
	<line fill="none" stroke="#000000" stroke-width="0.25" stroke-miterlimit="10" x1="300" y1="480" x2="300" y2="0"/>
	<line fill="none" stroke="#000000" stroke-width="0.75" stroke-miterlimit="10" x1="320" y1="480" x2="320" y2="0"/>
	<line fill="none" stroke="#000000" stroke-width="0.25" stroke-miterlimit="10" x1="340" y1="480" x2="340" y2="0"/>
	<line fill="none" stroke="#000000" stroke-width="0.25" stroke-miterlimit="10" x1="360" y1="480" x2="360" y2="0"/>
	<line fill="none" stroke="#000000" stroke-width="0.25" stroke-miterlimit="10" x1="380" y1="480" x2="380" y2="0"/>
	<line fill="none" stroke="#000000" stroke-width="0.25" stroke-miterlimit="10" x1="400" y1="480" x2="400" y2="0"/>
	<line fill="none" stroke="#000000" stroke-width="0.25" stroke-miterlimit="10" x1="420" y1="480" x2="420" y2="0"/>
	<line fill="none" stroke="#000000" stroke-width="0.25" stroke-miterlimit="10" x1="440" y1="480" x2="440" y2="0"/>
	<line fill="none" stroke="#000000" stroke-width="0.25" stroke-miterlimit="10" x1="460" y1="480" x2="460" y2="0"/>
	<line fill="none" stroke="#000000" stroke-width="0.25" stroke-miterlimit="10" x1="480" y1="480" x2="480" y2="0"/>
	<circle fill="none" stroke="#000000" stroke-width="0.75" stroke-miterlimit="10" cx="240" cy="240" r="200"/>
	<circle fill="none" stroke="#000000" stroke-width="0.75" stroke-miterlimit="10" cx="240" cy="240" r="100"/>
	<path fill="none" stroke="#000000" stroke-width="0.75" stroke-miterlimit="10" d="M60,100c0-20,20-40,40-40h280c20,0,40,20,40,40
		v280c0,20-20,40-40,40H100c-20,0-40-20-40-40V100z"/>
	<path fill="none" stroke="#000000" stroke-width="0.75" stroke-miterlimit="10" d="M100,80c0-20,20-40,40-40h200c20,0,40,20,40,40
		v320c0,20-20,40-40,40H140c-20,0-40-20-40-40V80z"/>
	<path fill="none" stroke="#000000" stroke-width="0.75" stroke-miterlimit="10" d="M80,380c-20,0-40-20-40-40V140c0-20,20-40,40-40
		h320c20,0,40,20,40,40v200c0,20-20,40-40,40H80z"/>
</g>
<path fill="#444444" d="M284.134,152.856c9.491,0,17.579,3.343,24.302,10.065s10.065,14.811,10.065,24.302
	c0,9.49-3.343,17.579-10.065,24.301s-14.811,10.066-24.302,10.066c-5.068,0-9.85-1.042-14.344-3.128
	c-4.493-2.085-8.375-4.961-11.575-8.699l-43.57,21.857c0.503,2.372,0.755,4.781,0.755,7.19s-0.252,4.817-0.755,7.19l43.57,21.821
	c3.235-3.704,7.082-6.615,11.575-8.7c4.494-2.085,9.275-3.128,14.344-3.128c9.491,0,17.579,3.343,24.302,10.066
	c6.723,6.723,10.065,14.812,10.065,24.301c0,9.491-3.343,17.579-10.065,24.302s-14.811,10.065-24.302,10.065
	c-9.49,0-17.579-3.343-24.301-10.065c-6.724-6.723-10.066-14.811-10.066-24.302c0-2.409,0.252-4.817,0.755-7.19l-43.57-21.82
	c-3.235,3.703-7.082,6.614-11.576,8.699c-4.494,2.086-9.275,3.129-14.343,3.129c-9.491,0-17.579-3.344-24.302-10.067
	c-6.723-6.722-10.066-14.81-10.066-24.3s3.343-17.579,10.066-24.302c6.723-6.722,14.811-10.065,24.302-10.065
	c5.068,0,9.85,1.043,14.343,3.127c4.494,2.085,8.376,4.961,11.576,8.7l43.57-21.821c-0.503-2.373-0.755-4.781-0.755-7.189
	c0-9.491,3.343-17.58,10.066-24.302C266.52,156.235,274.644,152.856,284.134,152.856z"/>
<image display="none" overflow="visible" width="62" height="62" xlink:href="../../../../../../../Desktop/SHARE BUTTON.png"  transform="matrix(6.4315 0 0 6.4315 40 40.0078)">
</image>
<path fill="#444444" d="M239.887,40.113C129.492,40.113,40,129.605,40,240c0,110.395,89.492,199.887,199.887,199.887
	c110.395,0,199.888-89.492,199.888-199.887C439.774,129.605,350.281,40.113,239.887,40.113z M239.887,425.742
	c-102.583,0-185.743-83.16-185.743-185.742c0-102.583,83.16-185.743,185.743-185.743S425.63,137.417,425.63,240
	C425.63,342.582,342.47,425.742,239.887,425.742z"/>
</svg>
